PathFileType	4	(X/Y/Z)	/Users/itak/Documents/Research/Walk-IL/dataset/trc/00113_00007.trc
DataRate	CameraRate	NumFrames	NumMarkers	Units	OrigDataRate	OrigDataStartFrame	OrigNumFrames
100.000000	100.000000	4	53	mm	100.000000	289	579
Frame#	Time	RPSI			LPSI			L3			STRN			T10			C7			CLAV			RBAK			LBAK			LSHO			LUPA			LAEL			LAOL			LWTS			LWPS			LFRA			LIFD			LHPS			LHTS			RSHO			RUPA			RAEL			RAOL			RWTS			RWPS			RFRA			RIFD			RHTS			RHPS			RBHD			LFHD			RFHD			LBHD			LHIP			RHIP			RASI			LASI			LKNE			LTHI			LANK			LTIP			LTOE			LMT1			LMT5			LHEE			RKNE			RTHI			RANK			RTIP			RTOE			RMT1			RMT5			RHEE			
		X1	Y1	Z1	X2	Y2	Z2	X3	Y3	Z3	X4	Y4	Z4	X5	Y5	Z5	X6	Y6	Z6	X7	Y7	Z7	X8	Y8	Z8	X9	Y9	Z9	X10	Y10	Z10	X11	Y11	Z11	X12	Y12	Z12	X13	Y13	Z13	X14	Y14	Z14	X15	Y15	Z15	X16	Y16	Z16	X17	Y17	Z17	X18	Y18	Z18	X19	Y19	Z19	X20	Y20	Z20	X21	Y21	Z21	X22	Y22	Z22	X23	Y23	Z23	X24	Y24	Z24	X25	Y25	Z25	X26	Y26	Z26	X27	Y27	Z27	X28	Y28	Z28	X29	Y29	Z29	X30	Y30	Z30	X31	Y31	Z31	X32	Y32	Z32	X33	Y33	Z33	X34	Y34	Z34	X35	Y35	Z35	X36	Y36	Z36	X37	Y37	Z37	X38	Y38	Z38	X39	Y39	Z39	X40	Y40	Z40	X41	Y41	Z41	X42	Y42	Z42	X43	Y43	Z43	X44	Y44	Z44	X45	Y45	Z45	X46	Y46	Z46	X47	Y47	Z47	X48	Y48	Z48	X49	Y49	Z49	X50	Y50	Z50	X51	Y51	Z51	X52	Y52	Z52	X53	Y53	Z53	

290	2.89	-451.7109375	1109.252075195312	-223.6670227050781	-447.3040161132812	1115.640991210938	-359.2381591796875	-458.3832092285156	1157.385986328125	-293.2619323730469	-207.2127685546875	1344.929443359375	-281.2966918945312	-468.2210388183594	1315.601684570312	-292.51220703125	-395.9033508300781	1602.376953125	-307.1740112304688	-225.7425231933594	1483.5810546875	-287.882080078125	-470.4273376464844	1426.45556640625	-218.0911712646484	-399.5066223144531	1583.0107421875	-409.3916625976562	-310.4502563476562	1560.205078125	-472.4113159179688	-334.6010131835938	1429.341674804688	-541.87353515625	-336.2108154296875	1208.970092773438	-558.8336791992188	-407.98095703125	1203.823364257812	-508.5313110351562	-269.8698425292969	942.3225708007812	-513.3282470703125	-354.5501708984375	925.5357666015625	-535.2531127929688	-332.2939453125	1091.932006835938	-561.3345947265625	-277.7958984375	750.2251586914062	-489.778076171875	-334.5612182617188	847.517822265625	-536.7620239257812	-265.1033020019531	852.2428588867188	-526.1537475585938	-349.4320373535156	1583.483154296875	-121.8676986694336	-371.9893798828125	1512.934936523438	-56.31512069702148	-392.392333984375	1217.673828125	-27.35615348815918	-396.6475219726562	1213.621337890625	-124.1510238647461	-228.1768493652344	989.3038940429688	-28.47157669067383	-300.990478515625	964.825439453125	-0.1051172539591789	-364.9383850097656	1145.378173828125	-9.328859329223633	-181.4696350097656	798.4346313476562	-35.79705047607422	-186.969482421875	885.657958984375	-16.6960391998291	-253.7563781738281	870.8936767578125	10.37593650817871	-344.3544616699219	1771.045166015625	-230.3242950439453	-201.8831939697266	1820.406494140625	-391.3102416992188	-186.063720703125	1842.361450195312	-264.0561828613281	-369.3033447265625	1752.535400390625	-362.950927734375	-342.2095642089844	1032.830688476562	-465.4891967773438	-329.1504821777344	1013.314880371094	-101.6701202392578	-244.7945404052734	1090.4287109375	-149.4118804931641	-240.6359252929688	1095.223388671875	-411.850341796875	-131.3971252441406	569.4302978515625	-453.2825622558594	-215.9051513671875	696.0877685546875	-478.5048522949219	-166.6736450195312	46.2877197265625	-468.7966918945312	-191.0429382324219	306.2420043945312	-487.5342407226562	63.07386016845703	71.52314758300781	-439.2064208984375	-10.22495365142822	68.34397888183594	-394.9219055175781	-45.60937118530273	48.82740783691406	-503.4402465820312	-228.5560913085938	45.06016540527344	-399.7464294433594	-299.6654357910156	520.0534057617188	-167.9934997558594	-294.6681213378906	799.8311157226562	-119.6418914794922	-486.2998657226562	35.26221466064453	-209.1757202148438	-342.7880554199219	385.8941345214844	-164.3916320800781	-248.3154449462891	39.35018920898438	-240.170166015625	-307.2708129882812	27.86031723022461	-287.0925598144531	-352.4432067871094	41.006103515625	-175.7330627441406	-539.853515625	39.14179611206055	-263.5303955078125	
291	2.9	-458.3457946777344	1110.888061523438	-223.0402984619141	-454.2453918457031	1117.22412109375	-358.5681457519531	-465.3290100097656	1158.972900390625	-292.6464538574219	-214.4878845214844	1347.260498046875	-281.3740234375	-475.39501953125	1317.02099609375	-291.9923706054688	-404.1719665527344	1604.129516601562	-307.1888427734375	-233.4696655273438	1485.8515625	-288.0055847167969	-477.9227600097656	1427.935302734375	-217.8564453125	-407.7810363769531	1584.616821289062	-409.3419799804688	-318.744140625	1562.251708984375	-472.4866333007812	-342.4876098632812	1431.269409179688	-541.894775390625	-343.4651489257812	1210.82666015625	-558.4229736328125	-414.9440307617188	1205.58154296875	-507.7815856933594	-276.7185363769531	944.0992431640625	-513.1129150390625	-361.6843566894531	927.4351196289062	-534.334228515625	-339.3977966308594	1093.797607421875	-560.8197631835938	-285.6114807128906	751.909912109375	-488.608154296875	-341.994384765625	849.3194580078125	-535.666259765625	-272.4416809082031	853.76123046875	-525.5525512695312	-357.2884216308594	1585.427124023438	-121.9526519775391	-379.8768920898438	1514.996337890625	-56.36780548095703	-401.3557434082031	1220.009155273438	-27.24070358276367	-405.0628967285156	1215.907470703125	-124.0773391723633	-238.7655181884766	990.3768310546875	-27.37705612182617	-311.9201049804688	966.5238037109375	0.6152975559234619	-374.4270324707031	1147.57861328125	-9.00418758392334	-193.6519165039062	799.0407104492188	-34.36614227294922	-198.4563598632812	886.3923950195312	-15.34743118286133	-265.5197448730469	872.1925659179688	11.37838745117188	-352.3766174316406	1773.162353515625	-230.4386291503906	-208.9712677001953	1822.453857421875	-390.4356079101562	-193.6665649414062	1843.806396484375	-263.0251770019531	-376.8300170898438	1755.17626953125	-363.2727355957031	-349.4963073730469	1034.700073242188	-465.1786193847656	-335.3426208496094	1015.139465332031	-101.277458190918	-251.1273193359375	1092.5849609375	-149.4021606445312	-247.7384033203125	1097.240844726562	-411.803955078125	-137.4944000244141	571.2015380859375	-453.3684997558594	-222.2112884521484	698.2496337890625	-477.2928161621094	-190.1227416992188	48.9562873840332	-468.6258850097656	-205.8638763427734	308.9273071289062	-486.778076171875	40.89022827148438	69.43489837646484	-445.2469787597656	-31.18009757995605	67.00382232666016	-398.8043518066406	-70.23554992675781	49.76443862915039	-506.7401428222656	-250.1369018554688	48.47601318359375	-397.8133850097656	-305.6717529296875	521.9832763671875	-167.1186828613281	-300.73681640625	801.68359375	-119.2369003295898	-486.3250732421875	35.05092239379883	-208.9324340820312	-347.3878479003906	387.62353515625	-163.4974975585938	-248.4510040283203	39.49015808105469	-240.0350189208984	-307.3778381347656	28.04375076293945	-286.96826171875	-352.521484375	40.93869781494141	-175.5638427734375	-539.823486328125	39.02149963378906	-263.259765625	
292	2.91	-464.8437194824219	1112.509643554688	-222.5412445068359	-461.017333984375	1118.7841796875	-358.0306091308594	-472.0741271972656	1160.49853515625	-292.1515502929688	-221.6531982421875	1349.520751953125	-281.5225219726562	-482.4579467773438	1318.351684570312	-291.5411682128906	-412.441650390625	1605.84130859375	-307.2321166992188	-241.12890625	1488.035766601562	-288.2178955078125	-485.3338928222656	1429.344482421875	-217.5965270996094	-416.0942993164062	1586.111450195312	-409.3043518066406	-327.0941162109375	1564.179077148438	-472.6134948730469	-350.4874877929688	1433.094360351562	-541.9832153320312	-350.7639770507812	1212.588500976562	-558.2216796875	-421.99658203125	1207.20166015625	-507.2896118164062	-283.28271484375	945.8972778320312	-512.8599243164062	-368.4176025390625	929.21875	-533.6902465820312	-346.4009704589844	1095.558959960938	-560.49609375	-292.7952575683594	753.6469116210938	-487.3997497558594	-348.8544616699219	851.040283203125	-534.7684936523438	-279.2650451660156	855.3326416015625	-524.8952026367188	-365.0268249511719	1587.292724609375	-122.0687561035156	-387.5912475585938	1516.991821289062	-56.43717575073242	-410.2169494628906	1222.28564453125	-27.08685302734375	-413.4785461425781	1218.14501953125	-123.9521255493164	-249.4334716796875	991.302001953125	-26.4221363067627	-322.9117431640625	968.1231079101562	1.279064297676086	-383.848876953125	1149.715576171875	-8.6689453125	-206.0484008789062	799.4971313476562	-33.24021911621094	-210.0955047607422	886.9498901367188	-14.24695587158203	-277.3919677734375	873.3479614257812	12.21572685241699	-360.4709777832031	1775.178955078125	-230.5788879394531	-216.1035919189453	1824.439819335938	-389.6134948730469	-201.315673828125	1845.228637695312	-262.0668029785156	-384.3815002441406	1757.727172851562	-363.6712341308594	-356.5726013183594	1036.50439453125	-464.9692993164062	-341.5048828125	1016.947387695312	-100.9758377075195	-257.3906555175781	1094.627197265625	-149.4244079589844	-254.6791381835938	1099.19189453125	-411.7777709960938	-143.6300659179688	572.7874755859375	-453.4821472167969	-228.3768463134766	700.3242797851562	-476.255859375	-214.3301086425781	52.12886428833008	-468.5346984863281	-220.9522857666016	311.8971252441406	-486.1324157714844	17.62077140808105	67.08839416503906	-450.0485229492188	-53.4063835144043	65.63541412353516	-401.9478759765625	-95.49112701416016	50.77700424194336	-509.3972473144531	-272.8548278808594	52.55593109130859	-396.3482971191406	-311.8843383789062	523.8738403320312	-166.2427215576172	-306.8686828613281	803.5105590820312	-118.8814392089844	-486.3728942871094	34.78173828125	-208.6482238769531	-352.1644897460938	389.3338928222656	-162.5736846923828	-248.613037109375	39.65449142456055	-239.8851776123047	-307.4840698242188	28.24501037597656	-286.8238525390625	-352.6121215820312	40.86665344238281	-175.3683929443359	-539.8273315429688	38.85117340087891	-262.9393310546875	
293	2.92	-471.2304077148438	1114.088134765625	-222.1707000732422	-467.6482238769531	1120.2958984375	-357.6306457519531	-478.6514892578125	1161.935668945312	-291.7797241210938	-228.7236328125	1351.672241210938	-281.7357788085938	-489.4593505859375	1319.586669921875	-291.1766052246094	-420.6884155273438	1607.478637695312	-307.3064270019531	-248.7228393554688	1490.09765625	-288.5078430175781	-492.6767883300781	1430.6640625	-217.3324432373047	-424.4172973632812	1587.480590820312	-409.285888671875	-335.4680786132812	1565.950439453125	-472.7877502441406	-358.5751037597656	1434.7783203125	-542.1304321289062	-358.0900573730469	1214.2216796875	-558.2053833007812	-429.1357116699219	1208.651977539062	-507.059814453125	-289.5889892578125	947.6857299804688	-512.5482177734375	-374.7606201171875	930.8528442382812	-533.3280639648438	-353.2962341308594	1097.187133789062	-560.3439331054688	-299.3048400878906	755.4083862304688	-486.2422180175781	-355.1434020996094	852.6551513671875	-534.11279296875	-285.5749206542969	856.9473266601562	-524.2091064453125	-372.6680908203125	1589.05029296875	-122.2179565429688	-395.1572570800781	1518.887084960938	-56.52300643920898	-418.9523010253906	1224.467407226562	-26.89404678344727	-421.8933410644531	1220.295654296875	-123.775764465332	-260.1543884277344	992.05615234375	-25.6094856262207	-333.9319763183594	969.5990600585938	1.898147344589233	-393.1773071289062	1151.759521484375	-8.322478294372559	-218.6324920654297	799.7843627929688	-32.39947128295898	-221.8554840087891	887.3099365234375	-13.38539218902588	-289.3387756347656	874.343994140625	12.91135883331299	-368.6195678710938	1777.043701171875	-230.7295379638672	-223.2931213378906	1826.340209960938	-388.848388671875	-209.0040740966797	1846.619018554688	-261.1950988769531	-391.9541015625	1760.131958007812	-364.1218872070312	-363.4350891113281	1038.208984375	-464.8497619628906	-347.6611938476562	1018.723937988281	-100.7724914550781	-263.601318359375	1096.540161132812	-149.4793701171875	-261.4687805175781	1101.052734375	-411.7642517089844	-149.81591796875	574.1292724609375	-453.5848999023438	-234.3936920166016	702.2781982421875	-475.4292907714844	-239.0908203125	55.79872894287109	-468.5706481933594	-236.1700439453125	315.1224975585938	-485.6444396972656	-6.556743621826172	64.62767791748047	-453.4168090820312	-76.80265808105469	64.36412048339844	-404.2143249511719	-121.1201324462891	51.8963623046875	-511.3338317871094	-296.5773620605469	57.29999923706055	-395.4619445800781	-318.2447814941406	525.6945190429688	-165.3622894287109	-313.0669555664062	805.2841796875	-118.5516357421875	-486.4429321289062	34.46732330322266	-208.3362579345703	-357.0696716308594	390.9957580566406	-161.6329498291016	-248.7974548339844	39.83701324462891	-239.7261657714844	-307.5847473144531	28.4620189666748	-286.6655578613281	-352.7088928222656	40.79123306274414	-175.1577758789062	-539.8614501953125	38.63909912109375	-262.5869445800781	
